HIERARCHY
ROOT Hips
{
	OFFSET 0.000000 0.000000 0.000000
	CHANNELS 6 Xposition Yposition Zposition Zrotation Yrotation Xrotation 
	JOINT LHipJoint
	{
		OFFSET 0.000000 0.000000 0.000000
		CHANNELS 3 Zrotation Yrotation Xrotation
		JOINT LeftUpLeg
		{
			OFFSET 1.363060 -1.794630 0.839290
			CHANNELS 3 Zrotation Yrotation Xrotation
			JOINT LeftLeg
			{
				OFFSET 2.448110 -6.726130 0.000000
				CHANNELS 3 Zrotation Yrotation Xrotation
				JOINT LeftFoot
				{
					OFFSET 2.562200 -7.039590 0.000000
					CHANNELS 3 Zrotation Yrotation Xrotation
					JOINT LeftToeBase
					{
						OFFSET 0.157640 -0.433110 2.322550
						CHANNELS 3 Zrotation Yrotation Xrotation
						End Site
						{
							OFFSET 0.000000 0.000000 0.000000
						}
					}
				}
			}
		}
	}
	JOINT RHipJoint
	{
		OFFSET 0.000000 0.000000 0.000000
		CHANNELS 3 Zrotation Yrotation Xrotation
		JOINT RightUpLeg
		{
			OFFSET -1.305520 -1.794630 0.839290
			CHANNELS 3 Zrotation Yrotation Xrotation
			JOINT RightLeg
			{
				OFFSET -2.542530 -6.985550 0.000000
				CHANNELS 3 Zrotation Yrotation Xrotation
				JOINT RightFoot
				{
					OFFSET -2.568260 -7.056230 0.000000
					CHANNELS 3 Zrotation Yrotation Xrotation
					JOINT RightToeBase
					{
						OFFSET -0.164730 -0.452590 2.363150
						CHANNELS 3 Zrotation Yrotation Xrotation
						End Site
						{
							OFFSET 0.000000 0.000000 0.000000
						}
					}
				}
			}
		}
	}
}
MOTION
Frames: 20
Frame Time: 0.008333
4.928687 15.676257 0.572805 94.849627 -87.758489 -63.581221 -8.318351 -0.891210 2.484853 -6.314590 -5.869844 -62.444559 -1.254330 2.603774 50.430349 2.506057 8.289057 -18.733268 -1.547300 -0.000000 -49.917300 10.318262 2.710430 2.414258 -0.432532 -1.321825 -64.904451 0.570740 -4.426110 55.337588 -2.559247 -7.244958 -17.869019 0.937299 0.000000 -61.865099
4.913632 15.661902 0.514245 104.857512 -87.616940 -73.848332 -8.325091 -0.955345 2.510896 -6.215709 -5.652027 -62.210171 -1.202152 2.578543 50.714464 2.584840 8.743025 -18.751592 -1.614600 0.000000 -50.025100 10.360053 2.574080 2.579546 -0.419941 -0.959126 -64.998829 0.528389 -4.454462 55.770179 -2.538505 -7.104750 -18.125270 0.967500 0.000000 -61.907099
4.896293 15.650656 0.454053 114.345865 -87.348591 -83.625151 -8.377981 -1.023473 2.550960 -6.109814 -5.435535 -61.891796 -1.155952 2.547706 50.919609 2.665348 9.199699 -18.808955 -1.690600 0.000000 -49.924000 10.358161 2.419390 2.749714 -0.409634 -0.566437 -65.021759 0.487281 -4.463884 56.140790 -2.518007 -6.964178 -18.369900 0.995300 -0.000001 -61.963400
4.876913 15.643269 0.392496 123.125864 -86.953931 -92.729950 -8.473260 -1.084011 2.601910 -5.987997 -5.211740 -61.470865 -1.116910 2.513609 51.041575 2.751289 9.672768 -18.928312 -1.782900 -0.000000 -49.612700 10.314777 2.258739 2.923370 -0.400538 -0.119525 -64.951947 0.445888 -4.448420 56.438855 -2.498350 -6.828514 -18.597181 1.020900 0.000000 -62.038300
4.855448 15.640352 0.329970 130.877258 -86.441585 -100.843313 -8.601124 -1.124933 2.668009 -5.833169 -5.001649 -60.940104 -1.082095 2.476352 51.080139 2.848413 10.190801 -19.113076 -1.897300 -0.000000 -49.127001 10.238410 2.104941 3.096700 -0.385627 0.380552 -64.775092 0.405059 -4.405721 56.654439 -2.479265 -6.698173 -18.804021 1.044100 -0.000001 -62.136600
4.832210 15.642715 0.266655 137.673134 -85.816496 -108.045424 -8.751230 -1.141707 2.745563 -5.635984 -4.809789 -60.283014 -1.047907 2.435280 51.039392 2.961895 10.787449 -19.350785 -2.037800 -0.000000 -48.527699 10.138811 1.964367 3.267949 -0.363229 0.944214 -64.472603 0.364746 -4.334916 56.775371 -2.460624 -6.576014 -18.983159 1.064499 -0.000000 -62.265100
4.807263 15.651005 0.202713 143.544659 -85.087044 -114.369339 -8.912876 -1.132498 2.833803 -5.388248 -4.654531 -59.492130 -1.008072 2.389059 50.929079 3.096916 11.503690 -19.606301 -2.204600 0.000000 -47.900000 10.026878 1.840642 3.434438 -0.331505 1.567188 -64.031674 0.326082 -4.237732 56.790550 -2.441543 -6.460902 -19.128243 1.080999 -0.000000 -62.430900
4.780875 15.665847 0.138235 148.547615 -84.263541 -119.874062 -9.076645 -1.098806 2.931584 -5.086881 -4.557424 -58.564696 -0.955020 2.336577 50.763971 3.257009 12.380116 -19.822675 -2.391700 -0.000001 -47.340600 9.912968 1.734337 3.592912 -0.290183 2.237640 -63.442314 0.290655 -4.117704 56.689941 -2.420444 -6.348532 -19.232842 1.092400 0.000000 -62.640000
4.753289 15.687712 0.073243 152.744916 -83.357898 -124.625284 -9.235143 -1.044374 3.037025 -4.735838 -4.540395 -57.505105 -0.880983 2.277759 50.565187 3.443225 13.450785 -19.925307 -2.584600 0.000000 -46.946400 9.806072 1.643849 3.739611 -0.241340 2.937237 -62.698313 0.260299 -3.979661 56.465458 -2.395052 -6.231263 -19.290632 1.096800 0.000000 -62.896200
4.724853 15.716940 0.007669 156.201836 -82.382964 -128.689812 -9.383361 -0.973963 3.147314 -4.346887 -4.621438 -56.326570 -0.779606 2.214188 50.360365 3.652814 14.733157 -19.828478 -2.757201 -0.000000 -46.802500 9.713333 1.566078 3.870623 -0.189417 3.643518 -61.796237 0.236860 -3.828964 56.111357 -2.362557 -6.098604 -19.295971 1.092400 0.000000 -63.201200
4.696280 15.753698 -0.058557 158.979916 -81.351673 -132.135097 -9.518199 -0.892695 3.257526 -3.940416 -4.810358 -55.049324 -0.647420 2.149323 50.182814 3.878612 16.221336 -19.442974 -2.868600 0.000001 -46.972200 9.639957 1.497774 3.981435 -0.140855 4.331853 -60.734835 0.221894 -3.671048 55.624723 -2.319847 -5.938444 -19.243790 1.077101 0.000000 -63.553900
4.668161 15.797926 -0.125501 161.144906 -80.275772 -135.028729 -9.638102 -0.804995 3.361136 -3.543903 -5.105180 -53.701752 -0.485125 2.088134 50.070576 4.108901 17.879283 -18.687626 -2.864000 -0.000000 -47.486700 9.589573 1.435626 4.068057 -0.104141 4.978687 -59.515209 0.216560 -3.510779 55.005206 -2.263858 -5.738026 -19.130265 1.049000 0.000001 -63.951100
4.641281 15.849324 -0.193200 162.762983 -79.165601 -137.440079 -9.742376 -0.714704 3.449488 -3.189742 -5.487834 -52.318707 -0.298100 2.036591 50.064586 4.327869 19.638380 -17.499940 -2.678700 0.000000 -48.338700 9.564446 1.376994 4.127123 -0.088509 5.563897 -58.140967 0.221339 -3.352277 54.255731 -2.192088 -5.486314 -18.952716 1.007099 0.000000 -64.386500
4.616652 15.907487 -0.261525 163.903221 -78.030161 -139.442760 -9.830742 -0.625156 3.512172 -2.911484 -5.924785 -50.938157 -0.095773 2.000617 50.205107 4.517307 21.401326 -15.848109 -2.250001 0.000000 -49.485600 9.565632 1.320159 4.156152 -0.103122 6.073613 -56.617368 0.235990 -3.198641 53.381176 -2.102963 -5.175623 -18.709065 0.950900 -0.000001 -64.853100
4.595168 15.971726 -0.330288 164.636866 -76.877133 -141.109129 -9.903118 -0.539078 3.538245 -2.739612 -6.369003 -49.600424 0.109583 1.985255 50.530564 4.658803 23.047552 -13.748844 -1.539800 -0.000000 -50.777200 9.593334 1.263933 4.154412 -0.156033 6.501161 -54.952597 0.259557 -3.051995 52.388443 -1.996346 -4.803507 -18.398563 0.881400 0.000000 -65.342700
4.577737 16.041305 -0.399139 165.033304 -75.714045 -142.508070 -9.959701 -0.458720 3.517086 -2.697644 -6.764736 -48.344910 0.305494 1.994073 51.073370 4.736303 24.446572 -11.267921 -0.554300 0.000000 -52.016500 9.646896 1.207666 4.123258 -0.254330 6.848303 -53.158075 0.290324 -2.913556 51.285498 -1.873772 -4.374055 -18.021309 0.800300 -0.000000 -65.847800
4.564867 16.115340 -0.467594 165.158824 -74.550158 -143.698250 -10.001283 -0.385726 3.440925 -2.798412 -7.057603 -47.210990 0.482418 2.028833 51.857798 4.739216 25.476525 -8.511666 0.642800 0.000000 -53.051100 9.724636 1.150648 4.066520 -0.402577 7.123637 -51.250829 0.326114 -2.783790 50.080413 -1.738362 -3.897540 -17.577778 0.710700 0.000000 -66.360900
4.556981 16.192931 -0.535145 165.065295 -73.396501 -144.722399 -10.028842 -0.321231 3.304844 -3.045193 -7.201734 -46.234675 0.634656 2.090156 52.901183 4.663583 26.034247 -5.630471 1.924400 0.000000 -53.674100 9.824397 1.092527 3.989584 -0.604847 7.340000 -49.251079 0.364194 -2.662691 48.781700 -1.594687 -3.390692 -17.069401 0.616200 0.000000 -66.877200
4.554168 16.273286 -0.601261 164.793564 -72.267019 -145.607569 -10.043823 -0.266134 3.108329 -3.430604 -7.166722 -45.450491 0.761746 2.177812 54.212370 4.512681 26.051991 -2.789866 3.129399 -0.000000 -53.759600 9.943276 1.032977 3.899220 -0.863185 7.512445 -47.183340 0.401677 -2.549774 47.396914 -1.448190 -2.874499 -16.498090 0.521001 -0.000000 -67.392700
4.556028 16.355641 -0.665472 164.375332 -71.178973 -146.365680 -10.048224 -0.221267 2.855364 -3.939450 -6.940052 -44.890902 0.867823 2.291167 55.793275 4.295955 25.506807 -0.149409 4.102801 -0.000000 -53.279300 10.077636 0.971490 3.802944 -1.176784 7.656125 -45.073961 0.435667 -2.443994 45.932723 -1.304875 -2.373459 -15.866556 0.429000 0.000000 -67.904400
